<svg height="469pt" viewBox="-26 0 469 469.12" width="469pt" xmlns="http://www.w3.org/2000/svg"><path  d="m412.25 465.121094-14.050781-118.769532c0-60.609374-49.136719-109.734374-109.734375-109.734374h-108.679688c-60.609375 0-109.738281 49.125-109.738281 109.734374v118.769532zm0 0" fill="#52b8d9"/><path d="m412.25 469.121094h-342.203125c-2.207031 0-4-1.792969-4-4v-118.769532c0-62.710937 51.023437-113.734374 113.738281-113.734374h108.679688c62.710937 0 113.734375 51.015624 113.734375 113.734374l14.015625 118.304688c.144531 1.136719-.214844 2.273438-.976563 3.128906-.757812.847656-1.855469 1.335938-2.988281 1.335938zm-338.203125-8h333.699219l-13.515625-114.296875c-.03125-58.769531-47.460938-106.199219-105.765625-106.199219h-108.679688c-58.304687 0-105.738281 47.429688-105.738281 105.734375zm0 0" fill="#63312d"/><path d="m360.304688 465.121094-14.046876-118.769532c0-60.609374-49.128906-109.734374-109.738281-109.734374h-108.664062c-60.605469 0-109.734375 49.125-109.734375 109.734374l-14.058594 118.769532zm0 0" fill="#82d9ff"/><path d="m20.222656 465.121094 14.007813-116.304688c0-53.0625 43.019531-96.089844 96.089843-96.089844h135.96875c14.128907 0 27.503907 3.128907 39.589844 8.601563-18.910156-15.441406-43.046875-24.71875-69.359375-24.71875h-108.664062c-60.605469 0-109.734375 49.125-109.734375 109.734375l-14.058594 118.777344zm0 0" fill="#caf4ff"/><path d="m360.3125 469.121094h-356.25c-1.140625 0-2.230469-.488282-2.992188-1.34375-.757812-.847656-1.117187-1.992188-.9804682-3.128906l14.0546872-118.769532c-.023437-62.246094 51-113.261718 113.710938-113.261718h108.671875c62.710937 0 113.738281 51.015624 113.738281 113.734374l14.015625 118.304688c.144531 1.136719-.21875 2.273438-.976562 3.128906-.761719.847656-1.855469 1.335938-2.992188 1.335938zm-351.753906-8h347.25l-13.511719-114.304688c-.03125-58.769531-47.464844-106.199218-105.769531-106.199218h-108.671875c-58.304688 0-105.734375 47.429687-105.734375 105.734374zm0 0" fill="#63312d"/><path d="m250.304688 237.574219c-4.519532-.566407-9.105469-.957031-13.785157-.957031h-108.664062c-4.757813 0-9.421875.40625-14.023438 1l68.222657 87.382812zm0 0" fill="#f8f3f3"/><path d="m132.390625 236.550781 49.664063 63.617188 49.664062-63.617188zm0 0" fill="#f9dd9d"/><path d="m182.054688 329c-1.230469 0-2.390626-.566406-3.152344-1.535156l-68.222656-87.386719c-.886719-1.132813-1.09375-2.652344-.542969-3.980469.542969-1.328125 1.765625-2.265625 3.191406-2.449218 5.472656-.695313 10.089844-1.023438 14.527344-1.023438h108.671875c4.359375 0 8.898437.3125 14.28125.992188 1.421875.175781 2.648437 1.109374 3.191406 2.4375.550781 1.335937.34375 2.855468-.535156 3.992187l-68.257813 87.425781c-.75.96875-1.917969 1.527344-3.152343 1.527344zm-60.613282-88.144531 60.621094 77.648437 60.625-77.664062c-2.152344-.152344-4.175781-.214844-6.160156-.214844h-108.671875c-2.0625 0-4.175781.070312-6.414063.230469zm0 0" fill="#63312d"/><path d="m182.054688 304.167969c-1.230469 0-2.390626-.566407-3.152344-1.535157l-49.664063-63.617187c-.941406-1.199219-1.109375-2.839844-.4375-4.214844.664063-1.375 2.0625-2.25 3.589844-2.25h99.335937c1.53125 0 2.921876.875 3.59375 2.25.671876 1.375.503907 3.007813-.441406 4.214844l-49.664062 63.617187c-.757813.976563-1.925782 1.535157-3.160156 1.535157zm-41.460938-63.617188 41.46875 53.121094 41.472656-53.121094zm0 0" fill="#63312d"/><path d="m226.769531 21.761719h-46.777343v214.992187h46.777343c59.367188 0 107.496094-48.128906 107.496094-107.496094 0-59.371093-48.128906-107.496093-107.496094-107.496093zm0 0" fill="#efc36a"/><path d="m226.769531 21.761719h-46.777343v99.367187h153.855468c-4.167968-55.5625-50.464844-99.367187-107.078125-99.367187zm0 0" fill="#db785a"/><g fill="#63312d"><path d="m333.855469 125.121094h-153.863281c-2.207032 0-4-1.792969-4-4v-99.359375c0-2.210938 1.792968-4 4-4h46.777343c57.941407 0 106.734375 45.269531 111.078125 103.0625.082032 1.113281-.304687 2.207031-1.0625 3.015625-.761718.816406-1.816406 1.28125-2.929687 1.28125zm-149.863281-8h145.457031c-6.050781-51.578125-50.34375-91.367188-102.679688-91.367188h-42.777343zm0 0"/><path d="m226.769531 240.753906h-46.777343c-2.207032 0-4-1.792968-4-4v-214.992187c0-2.210938 1.792968-4 4-4h46.777343c61.480469 0 111.496094 50.015625 111.496094 111.496093 0 61.476563-50.015625 111.496094-111.496094 111.496094zm-42.777343-8h42.777343c57.0625 0 103.496094-46.433594 103.496094-103.496094 0-57.066406-46.433594-103.496093-103.496094-103.496093h-42.777343zm0 0"/><path d="m79.335938 329.382812h8v134.753907h-8zm0 0"/><path d="m285.121094 329.382812h8v134.753907h-8zm0 0"/></g><path d="m287.488281 129.257812c0 59.367188-48.128906 107.496094-107.496093 107.496094-59.367188 0-107.496094-48.128906-107.496094-107.496094 0-59.371093 48.136718-107.496093 107.496094-107.496093 59.359374 0 107.496093 48.117187 107.496093 107.496093zm0 0" fill="#f9dd9d"/><path d="m180.046875 92.921875 22.015625 28.199219h85.007812c-4.15625-55.554688-50.445312-99.359375-107.078124-99.359375-56.625 0-102.921876 43.804687-107.089844 99.367187h85.121094zm0 0" fill="#f9a287"/><path d="m187.992188 22.144531c-2.648438-.199219-5.304688-.382812-8-.382812-56.625 0-102.921876 43.804687-107.089844 99.367187h16c3.96875-52.914062 46.179687-95.082031 99.089844-98.984375zm0 0" fill="#ffc8bb"/><path d="m287.070312 125.121094h-85.007812c-1.230469 0-2.390625-.570313-3.148438-1.535156l-18.867187-24.171876-18.863281 24.171876c-.757813.972656-1.917969 1.535156-3.152344 1.535156h-85.117188c-1.113281 0-2.179687-.464844-2.9375-1.28125-.753906-.816406-1.136718-1.910156-1.054687-3.015625 4.335937-57.792969 53.125-103.0625 111.078125-103.0625 57.945312 0 106.734375 45.269531 111.070312 103.0625.082032 1.113281-.300781 2.207031-1.0625 3.015625-.757812.816406-1.824218 1.28125-2.9375 1.28125zm-83.054687-8h78.65625c-6.039063-51.570313-50.335937-91.359375-102.679687-91.359375s-96.640626 39.789062-102.6875 91.367187h78.765624l20.824219-26.671875c1.515625-1.945312 4.792969-1.945312 6.304688 0zm0 0" fill="#63312d"/><path d="m179.992188 240.753906c-61.480469 0-111.503907-50.019531-111.503907-111.496094 0-61.480468 50.023438-111.496093 111.503907-111.496093 61.480468 0 111.496093 50.015625 111.496093 111.496093 0 61.476563-50.015625 111.496094-111.496093 111.496094zm0-214.992187c-57.070313 0-103.503907 46.429687-103.503907 103.496093 0 57.0625 46.433594 103.496094 103.503907 103.496094 57.0625 0 103.496093-46.433594 103.496093-103.496094 0-57.066406-46.433593-103.496093-103.496093-103.496093zm0 0" fill="#63312d"/><path d="m198.902344 4.007812h-18.855469v17.679688h18.855469c59.480468 0 100.585937 48.214844 100.585937 107.695312 0 7.160157-.726562 14.144532-2.070312 20.914063h24.957031c1.167969-6.824219 1.90625-13.769531 1.90625-20.914063.007812-69.125-56.242188-125.375-125.378906-125.375zm0 0" fill="#d1d1d1"/><path d="m322.375 154.296875h-24.957031c-1.195313 0-2.328125-.535156-3.097657-1.464844-.761718-.929687-1.0625-2.144531-.832031-3.320312 1.320313-6.664063 1.992188-13.441407 1.992188-20.136719 0-59.117188-41.519531-103.695312-96.585938-103.695312h-18.855469c-2.207031 0-4-1.792969-4-4v-17.679688c0-2.207031 1.792969-4 4-4h18.855469c71.335938 0 129.378907 58.039062 129.378907 129.375 0 6.785156-.640626 13.847656-1.960938 21.585938-.320312 1.925781-1.984375 3.335937-3.9375 3.335937zm-20.191406-8h16.785156c.886719-6 1.320312-11.5625 1.320312-16.914063 0-66.925781-54.457031-121.375-121.375-121.375h-14.859374v9.679688h14.859374c59.621094 0 104.582032 48.015625 104.582032 111.695312-.007813 5.617188-.449219 11.289063-1.3125 16.914063zm0 0" fill="#63312d"/><path d="m74.417969 150.296875c-1.347657-6.769531-2.066407-13.761719-2.066407-20.914063 0-59.480468 48.214844-107.695312 107.695313-107.695312s107.6875 48.214844 107.6875 107.695312c0 7.160157-.726563 14.144532-2.070313 20.914063h17.855469c1.152344-6.824219 1.878907-13.769531 1.878907-20.914063 0-69.125-56.238282-125.375-125.359376-125.375-69.136718 0-125.382812 56.25-125.382812 125.375 0 7.144532.734375 14.097657 1.894531 20.914063zm0 0" fill="#f8f3f3"/><path d="m303.527344 154.296875h-17.855469c-1.191406 0-2.328125-.535156-3.09375-1.464844-.761719-.929687-1.066406-2.144531-.832031-3.320312 1.316406-6.664063 1.988281-13.441407 1.988281-20.136719 0-57.175781-46.511719-103.695312-103.6875-103.695312s-103.695313 46.511718-103.695313 103.695312c0 6.703125.664063 13.480469 1.992188 20.136719.234375 1.175781-.070312 2.390625-.832031 3.320312-.757813.929688-1.894531 1.464844-3.085938 1.464844h-17.875c-1.949219 0-3.613281-1.410156-3.941406-3.335937-1.3125-7.746094-1.953125-14.800782-1.953125-21.585938 0-71.335938 58.039062-129.375 129.382812-129.375 71.335938 0 129.359376 58.039062 129.359376 129.375 0 6.777344-.628907 13.832031-1.933594 21.578125-.320313 1.933594-1.984375 3.34375-3.9375 3.34375zm-13.09375-8h9.671875c.871093-6 1.304687-11.570313 1.304687-16.914063 0-66.925781-54.449218-121.375-121.363281-121.375-66.933594 0-121.382813 54.449219-121.382813 121.375 0 5.351563.433594 10.914063 1.3125 16.914063h9.679688c-.863281-5.625-1.304688-11.289063-1.304688-16.914063 0-61.589843 50.105469-111.695312 111.695313-111.695312 61.59375 0 111.6875 50.105469 111.6875 111.695312 0 5.617188-.429687 11.289063-1.300781 16.914063zm0 0" fill="#63312d"/><path d="m49.902344 102.152344c-6.351563 0-11.535156 5.191406-11.535156 11.535156v46.847656c0 6.34375 5.183593 11.527344 11.535156 11.527344h25.90625v-69.910156zm0 0" fill="#82d9ff"/><path d="m52.257812 127.566406c0-6.351562 5.183594-11.535156 11.527344-11.535156h12.023438v-13.871094h-25.90625c-6.351563 0-11.535156 5.191406-11.535156 11.535156v46.847657c0 6.34375 5.183593 11.527343 11.535156 11.527343h2.347656v-44.503906zm0 0" fill="#caf4ff"/><path d="m75.808594 176.0625h-25.90625c-8.566406 0-15.535156-6.964844-15.535156-15.527344v-46.847656c0-8.566406 6.96875-15.535156 15.535156-15.535156h25.90625c2.207031 0 4 1.792968 4 4v69.910156c0 2.21875-1.792969 4-4 4zm-25.90625-69.910156c-4.15625 0-7.535156 3.375-7.535156 7.535156v46.847656c0 4.152344 3.378906 7.527344 7.535156 7.527344h21.90625v-61.910156zm0 0" fill="#63312d"/><path d="m337.746094 102.152344c6.34375 0 11.527344 5.191406 11.527344 11.535156v46.847656c0 6.34375-5.183594 11.527344-11.527344 11.527344h-53.664063v-69.910156zm0 0" fill="#52b8d9"/><path d="m309.984375 102.152344c6.335937 0 11.535156 5.191406 11.535156 11.535156v46.847656c0 6.34375-5.199219 11.527344-11.535156 11.527344h-25.902344v-69.910156zm0 0" fill="#82d9ff"/><path d="m300.082031 118.152344h21.445313v-4.464844c0-6.34375-5.199219-11.535156-11.535156-11.535156h-25.902344v69.910156h16v-53.910156zm0 0" fill="#caf4ff"/><path d="m309.984375 176.0625h-25.902344c-2.210937 0-4-1.789062-4-4v-69.910156c0-2.207032 1.789063-4 4-4h25.902344c8.566406 0 15.535156 6.96875 15.535156 15.535156v46.847656c.007813 8.5625-6.960937 15.527344-15.535156 15.527344zm-21.902344-8h21.902344c4.160156 0 7.535156-3.375 7.535156-7.527344v-46.847656c0-4.160156-3.382812-7.535156-7.535156-7.535156h-21.902344zm0 0" fill="#63312d"/><path d="m337.746094 176.0625h-53.664063c-2.210937 0-4-1.789062-4-4v-69.910156c0-2.207032 1.789063-4 4-4h53.664063c8.558594 0 15.527344 6.96875 15.527344 15.535156v46.847656c.007812 8.5625-6.960938 15.527344-15.527344 15.527344zm-49.664063-8h49.664063c4.15625 0 7.527344-3.375 7.527344-7.527344v-46.847656c0-4.160156-3.378907-7.535156-7.527344-7.535156h-49.664063zm0 0" fill="#63312d"/></svg>